<?xml version="1.0"?>
<svg width="1000" height="1000" xmlns="http://www.w3.org/2000/svg" xmlns:svg="http://www.w3.org/2000/svg">
 <metadata>Svg Vector Icons : http://www.onlinewebfonts.com/icon</metadata>
 <g>
  <title>Layer 1</title>
  <g id="svg_1">
   <path stroke="#000000" fill="#ffffff" id="svg_3" d="m470.267785,11.805178c-49.060001,4.91 -81.160001,11.24 -118.570002,23.3c-23.51,7.77 -69.500001,26.37 -68.070001,27.6c0.41,0.41 13.9,1.63 30.25,3.07c121.630002,9.61 234.270003,33.53 315.230005,66.440001c46.400001,19.01 73.390001,34.960001 113.460002,67.460001l6.54,5.31l13.7,-27.19c7.56,-14.92 17.99,-36.590001 23.51,-48.240001l9.81,-20.85l-24.53,-16.15c-61.740001,-41.090001 -128.170002,-66.030001 -203.200003,-76.860001c-20.45,-3.08 -82.600001,-5.53 -98.130001,-3.89z"/>
   <path stroke="#000000" fill="#3f3f3f" id="svg_4" d="m193.877781,120.76518c-37.410001,30.05 -77.480001,74.620001 -103.230002,114.680002c-11.04,17.17 -26.17,43.340001 -26.17,45.380001c0,0.61 15.33,1.64 34.340001,2.45c250.010004,10.43 441.360007,49.680001 527.420008,108.350002l16.56,11.24l15.74,-28.01c8.59,-15.33 27.6,-50.290001 42.320001,-77.680001l26.58,-49.880001l-7.97,-8.18c-29.03,-30.46 -86.470001,-61.330001 -152.300002,-82.180001c-88.310001,-28.01 -188.070003,-43.340001 -331.370005,-51.310001l-21.87,-1.23l-20.05,16.37z"/>
   <path stroke="#000000" fill="#7fff00" id="svg_5" d="m799.39779,202.735181c-99.560001,199.110003 -177.860003,330.970005 -234.690003,394.950006l-12.27,13.9l3.68,9.61c2.04,5.52 15.13,36.390001 29.23,69.090001c13.9,32.5 26.37,61.740001 27.6,64.800001c1.23,3.27 2.86,5.72 3.68,5.72c0.62,0 9.41,-6.13 19.42,-13.7c125.530002,-94.020001 236.120004,-253.880004 293.560004,-424.580006c14.1,-41.910001 14.92,-34.750001 -6.54,-70.940001c-19.83,-33.53 -42.110001,-62.550001 -68.690001,-89.740001l-22.9,-23.3l-32.08,64.190001z"/>
   <path stroke="#000000" fill="#ffffff" id="svg_6" d="m36.067779,350.535183c-9.61,29.64 -15.54,55.400001 -19.83,85.040001c-2.86,21.06 -2.86,21.26 1.43,24.53c21.87,15.95 61.740001,41.290001 78.500001,49.470001c32.5,15.95 107.730002,35.770001 185.620003,48.860001c51.110001,8.59 191.340003,22.49 226.300003,22.49c11.86,0 11.86,0 22.69,-11.86c5.93,-6.34 18.4,-22.08 28.01,-34.750001c17.57,-23.51 59.690001,-88.520001 59.690001,-91.990001c0,-3.48 -30.46,-23.1 -51.720001,-33.12c-45.790001,-21.67 -106.710002,-39.050001 -188.280003,-53.150001c-77.680001,-13.49 -183.980003,-24.33 -270.050004,-27.6c-16.76,-0.61 -38.230001,-1.64 -47.430001,-2.25l-16.76,-1.02l-8.17,25.35z"/>
   <path stroke="#000000" fill="#3f3f3f" id="svg_7" d="m962.117793,364.845183c-34.140001,89.740001 -87.500001,186.440003 -143.920002,260.850004c-49.470001,65.210001 -109.160002,124.500002 -167.020002,165.580002c-8.38,6.13 -15.74,11.25 -16.15,11.65c-1.02,1.02 64.390001,131.650002 68.890001,137.580002l3.88,4.7l21.26,-10.83c79.930001,-40.880001 153.320002,-111.820002 198.700003,-191.750003c55.190001,-97.510001 75.840001,-211.790003 57.440001,-320.130005c-3.27,-20.24 -14.72,-66.640001 -16.97,-68.890001c-0.59,-0.82 -3.45,4.29 -6.11,11.24z"/>
   <path stroke="#000000" fill="#7fff00" id="svg_8" d="m12.357779,527.165186c5.72,75.840001 23.3,139.410002 54.780001,199.920003c10.42,19.62 36.180001,61.120001 37.210001,59.900001c0.41,-0.41 -2.04,-13.08 -5.32,-28.21c-3.27,-15.13 -8.38,-43.750001 -11.45,-63.370001c-4.91,-31.89 -5.52,-41.700001 -5.52,-89.130001l-0.2,-53.350001l-13.08,-6.96c-7.16,-3.88 -22.69,-13.08 -34.350001,-20.85c-11.65,-7.56 -21.67,-13.69 -22.28,-13.69c-0.61,0 -0.41,7.15 0.21,15.74z"/>
   <path stroke="#000000" fill="#3f3f3f" id="svg_9" d="m124.78778,586.445187c-4.29,57.240001 15.54,174.580003 45.180001,264.730004c4.91,15.13 5.93,16.35 21.26,29.23c38.630001,32.3 98.120001,65.420001 147.800002,82.590001c13.29,4.7 24.53,8.38 25.14,8.38c0.41,0 -0.82,-3.48 -3.07,-7.56c-12.88,-25.76 -35.370001,-97.310001 -47.020001,-149.840002c-12.88,-57.440001 -24.33,-129.610002 -29.03,-180.920003c-1.43,-14.72 -3.07,-27.19 -3.68,-28.01c-0.61,-0.61 -14.92,-3.68 -31.89,-6.75c-26.98,-4.91 -110.600002,-24.74 -119.790002,-28.62c-3.06,-1.02 -3.67,1.23 -4.9,16.77z"/>
   <path stroke="#000000" fill="#7fff00" id="svg_10" d="m328.187783,614.655187c0,2.25 1.43,16.56 3.27,31.69c14.72,128.990002 42.320001,242.650004 74.820001,307.660005c15.74,31.69 14.92,30.66 35.980001,33.53c65.830001,8.38 139.830002,1.84 203.200003,-18.19l20.03,-6.34l-9.4,-16.76c-32.3,-58.470001 -86.270001,-175.810003 -135.740002,-294.370004c-10.22,-24.12 -11.24,-25.96 -16.35,-25.96c-10.43,0 -109.170002,-8.18 -142.490002,-11.86l-33.32,-3.68l0,4.28z"/>
  </g>
 </g>
</svg>